<?xml version="1.0" standalone="no"?>
<!DOCTYPE svg PUBLIC "-//W3C//DTD SVG 20010904//EN"
 "http://www.w3.org/TR/2001/REC-SVG-20010904/DTD/svg10.dtd">
<svg version="1.0" xmlns="http://www.w3.org/2000/svg"
 width="1200.000000pt" height="1200.000000pt" viewBox="0 0 1200.000000 1200.000000"
 preserveAspectRatio="xMidYMid meet">
<metadata>
Created by potrace 1.14, written by Peter Selinger 2001-2017
</metadata>
<g transform="translate(0.000000,1200.000000) scale(0.100000,-0.100000)"
fill="#000000" stroke="none">
<path d="M5877 11914 c-1 -1 -72 -4 -157 -8 -85 -3 -166 -8 -180 -10 -14 -3
-63 -7 -110 -10 -47 -4 -96 -8 -110 -10 -60 -10 -119 -18 -165 -23 -27 -3 -52
-8 -55 -12 -3 -3 -21 -6 -40 -7 -37 -1 -81 -8 -190 -29 -57 -12 -76 -15 -100
-20 -59 -11 -392 -98 -465 -121 -44 -14 -87 -28 -95 -29 -18 -4 -183 -61 -290
-100 -121 -44 -309 -123 -392 -166 -43 -21 -78 -35 -78 -31 0 4 -4 3 -8 -3 -4
-5 -68 -41 -142 -78 -74 -37 -148 -76 -165 -85 -87 -50 -162 -94 -179 -105
-137 -85 -212 -132 -216 -137 -3 -3 -32 -23 -65 -44 -80 -52 -196 -136 -218
-158 -10 -10 -21 -18 -26 -18 -4 0 -16 -8 -27 -18 -10 -10 -57 -48 -104 -84
-47 -37 -98 -79 -115 -93 -16 -15 -59 -52 -95 -83 -176 -155 -404 -383 -530
-531 -30 -36 -62 -72 -70 -81 -9 -8 -42 -49 -75 -90 -33 -41 -62 -77 -65 -80
-14 -13 -184 -246 -245 -335 -66 -97 -148 -226 -185 -289 -100 -173 -140 -247
-140 -256 0 -5 -4 -10 -10 -10 -5 0 -10 -9 -10 -19 0 -11 -4 -22 -9 -25 -14
-9 -140 -271 -211 -441 -114 -273 -227 -612 -285 -855 -18 -76 -45 -200 -49
-220 -3 -14 -12 -61 -20 -105 -16 -85 -19 -101 -36 -210 -6 -38 -13 -81 -15
-95 -2 -14 -6 -50 -9 -80 -3 -30 -7 -71 -10 -90 -43 -307 -38 -947 10 -1305 3
-27 7 -59 9 -70 4 -38 18 -140 21 -160 2 -11 11 -60 19 -110 8 -49 17 -101 20
-115 3 -14 8 -41 11 -60 3 -19 8 -38 10 -41 2 -3 6 -21 9 -40 3 -19 13 -61 22
-94 8 -33 17 -71 19 -85 3 -14 25 -92 49 -175 25 -82 47 -158 50 -168 28 -116
203 -556 299 -755 20 -40 36 -75 36 -78 0 -3 9 -19 21 -35 11 -16 18 -29 15
-29 -3 0 8 -23 24 -50 17 -28 30 -52 30 -54 0 -11 163 -286 229 -389 90 -138
210 -315 226 -331 5 -6 23 -29 40 -51 16 -22 33 -44 37 -50 22 -29 179 -219
227 -275 144 -167 397 -420 556 -555 39 -33 72 -62 75 -65 3 -3 32 -27 65 -55
33 -27 65 -54 72 -60 15 -12 21 -17 103 -80 87 -68 308 -222 395 -276 39 -24
72 -46 75 -49 8 -9 84 -51 102 -57 10 -3 18 -9 18 -14 0 -5 4 -9 9 -9 7 0 147
-76 201 -110 23 -14 279 -140 325 -160 22 -10 65 -29 95 -43 194 -89 531 -208
800 -282 66 -19 298 -75 325 -79 19 -3 56 -11 82 -17 27 -6 59 -12 73 -14 24
-3 60 -10 106 -19 12 -2 45 -7 75 -11 30 -3 61 -8 69 -10 8 -3 38 -7 65 -10
28 -3 66 -8 85 -10 176 -20 225 -24 356 -31 133 -7 562 -7 639 0 28 2 97 7
155 11 58 4 119 9 135 11 17 1 50 5 75 8 25 3 61 8 80 10 19 3 55 8 80 11 41
5 124 19 190 31 14 2 41 7 60 10 19 3 52 10 72 15 20 5 40 9 45 8 4 -1 15 1
23 4 8 3 49 13 90 21 41 8 140 33 220 56 143 40 171 48 200 55 8 2 15 4 15 5
0 1 7 3 15 5 36 8 245 81 360 126 145 57 123 48 312 133 81 36 151 66 157 66
5 0 11 3 13 8 4 8 94 54 104 52 4 -1 10 3 13 8 3 5 31 22 61 37 72 36 329 187
402 237 31 21 59 38 63 38 5 0 118 79 142 100 7 5 16 10 22 10 5 0 11 4 13 8
2 5 25 23 53 42 27 19 56 40 65 46 8 7 67 54 130 105 63 51 131 106 151 123
20 17 60 51 89 76 79 66 426 413 501 499 35 41 76 87 90 102 14 16 36 43 50
61 13 18 33 42 44 53 28 30 222 288 269 360 22 33 43 62 46 65 4 3 35 51 71
108 87 139 106 170 130 217 12 22 24 42 28 45 15 12 216 411 270 535 24 55 51
118 61 140 18 42 127 331 140 375 64 206 89 292 125 435 24 94 46 184 49 200
2 17 7 41 11 55 3 14 12 63 20 110 9 47 17 92 20 100 2 8 7 40 10 70 3 30 8
62 10 70 2 8 6 40 9 70 4 30 8 66 10 80 3 14 7 57 11 95 3 39 8 93 10 120 16
164 23 477 15 568 -3 32 -2 61 2 63 5 3 5 11 1 17 -4 7 -8 30 -9 52 -5 116
-15 274 -19 305 -2 19 -7 67 -11 105 -11 129 -18 181 -39 300 -3 17 -8 46 -10
65 -3 19 -7 42 -10 50 -4 14 -9 39 -21 110 -7 46 -23 119 -38 177 -8 32 -17
70 -20 85 -22 129 -172 589 -256 788 -18 41 -33 80 -34 85 -1 6 -12 30 -24 54
-12 25 -22 51 -22 58 0 7 -4 13 -10 13 -5 0 -9 3 -8 8 2 11 -17 54 -84 186
-34 66 -69 137 -79 156 -16 33 -108 198 -129 230 -5 8 -28 47 -51 85 -46 76
-119 187 -128 195 -4 3 -12 16 -19 30 -10 20 -127 186 -159 225 -5 6 -39 51
-78 100 -38 50 -92 117 -120 150 -28 33 -59 71 -70 83 -179 213 -514 536 -749
724 -56 44 -110 88 -121 97 -11 9 -36 27 -55 41 -19 13 -37 27 -40 30 -3 3
-27 22 -55 41 -27 18 -52 36 -55 39 -16 16 -161 110 -170 110 -5 0 -10 5 -10
10 0 6 -10 15 -22 20 -24 10 -59 31 -68 40 -3 3 -16 12 -30 20 -371 216 -627
344 -920 460 -165 66 -558 194 -660 215 -8 2 -15 4 -15 5 0 1 -7 3 -15 5 -8 1
-43 10 -78 19 -55 15 -111 28 -177 41 -11 2 -31 7 -45 10 -14 4 -38 8 -55 10
-16 1 -37 5 -45 8 -8 3 -58 12 -110 21 -92 15 -109 17 -215 31 -27 3 -64 8
-81 10 -16 2 -59 7 -95 10 -35 3 -84 8 -109 11 -99 10 -594 25 -603 18z m15
-359 c5 -7 8 -6 8 1 0 7 50 10 153 8 162 -2 448 -14 457 -19 3 -1 41 -6 85 -9
44 -4 87 -9 95 -11 8 -2 38 -7 65 -10 28 -3 75 -9 105 -15 30 -5 71 -11 90
-14 19 -3 44 -7 55 -10 11 -2 40 -7 65 -11 57 -9 37 -5 274 -60 201 -47 540
-155 716 -227 40 -17 61 -25 130 -53 36 -15 69 -31 74 -36 6 -5 16 -9 24 -9
16 0 370 -176 429 -213 24 -15 45 -27 48 -27 3 0 31 -16 61 -35 30 -19 59 -35
64 -35 6 0 10 -4 10 -10 0 -5 5 -10 10 -10 6 0 50 -26 98 -57 48 -32 91 -60
97 -62 19 -8 311 -221 351 -256 6 -5 29 -23 50 -40 21 -16 70 -57 109 -90 38
-33 83 -71 99 -85 64 -54 397 -390 467 -470 100 -115 161 -189 178 -214 8 -12
17 -23 21 -26 25 -22 310 -420 310 -433 0 -3 19 -34 43 -69 23 -35 48 -74 55
-88 7 -14 29 -52 49 -85 53 -89 203 -385 257 -510 72 -165 72 -164 106 -255
18 -47 38 -101 45 -120 8 -19 26 -73 41 -120 15 -47 31 -93 35 -102 5 -10 13
-34 18 -55 5 -21 16 -65 26 -98 55 -195 117 -486 144 -675 6 -41 13 -86 15
-100 2 -14 7 -53 10 -87 4 -35 9 -80 11 -100 3 -21 7 -64 9 -95 3 -32 7 -62
11 -67 3 -5 1 -12 -5 -16 -6 -4 -8 -10 -5 -15 17 -27 25 -516 11 -710 -13
-193 -14 -205 -33 -360 -2 -25 -8 -64 -13 -87 -5 -30 -4 -43 4 -43 8 0 8 -2 0
-8 -6 -4 -14 -25 -18 -47 -3 -22 -9 -56 -11 -75 -3 -19 -15 -78 -25 -130 -11
-52 -23 -108 -26 -125 -25 -127 -104 -409 -165 -585 -21 -63 -41 -119 -43
-125 -1 -5 -8 -23 -15 -40 -6 -16 -16 -41 -21 -55 -5 -14 -15 -38 -21 -55 -7
-16 -13 -32 -14 -35 -3 -10 -37 -86 -56 -127 -10 -24 -19 -45 -19 -49 0 -7
-173 -357 -180 -364 -3 -3 -18 -30 -34 -60 -58 -108 -266 -441 -309 -495 -4
-5 -45 -59 -89 -120 -45 -60 -85 -112 -90 -113 -4 -2 -8 -10 -8 -18 0 -8 -4
-14 -8 -14 -5 0 -21 -18 -38 -40 -16 -22 -42 -55 -59 -73 -16 -18 -52 -59 -80
-91 -102 -119 -263 -285 -391 -403 -126 -116 -130 -120 -246 -216 -54 -44 -98
-84 -98 -88 0 -5 -4 -8 -8 -7 -7 3 -186 -128 -220 -159 -7 -7 -17 -13 -22 -13
-5 0 -15 -6 -22 -13 -22 -21 -217 -147 -227 -147 -6 0 -15 -8 -20 -17 -6 -10
-11 -14 -11 -9 0 5 -8 2 -17 -6 -10 -9 -40 -28 -68 -43 -27 -14 -63 -35 -80
-45 -165 -103 -562 -288 -805 -376 -52 -19 -102 -37 -110 -41 -8 -3 -20 -7
-26 -8 -6 -2 -44 -14 -85 -28 -157 -54 -543 -155 -657 -172 -15 -2 -38 -6 -52
-9 -24 -5 -144 -25 -185 -31 -101 -14 -192 -26 -250 -31 -38 -4 -83 -8 -100
-10 -240 -25 -905 -24 -946 2 -5 3 -9 0 -9 -6 0 -7 -6 -8 -17 -2 -10 5 -40 10
-67 11 -27 2 -58 5 -70 7 -11 2 -49 7 -82 10 -34 2 -72 7 -85 9 -42 8 -83 15
-119 20 -19 2 -45 6 -56 9 -12 2 -37 7 -55 10 -58 9 -231 45 -294 61 -33 9
-71 18 -85 21 -14 3 -43 10 -65 16 -22 5 -40 9 -40 9 0 -1 -26 7 -57 18 -32
11 -58 17 -58 14 0 -3 -6 -1 -12 4 -7 6 -35 16 -63 23 -27 7 -54 17 -60 21 -5
5 -16 9 -24 9 -15 0 -272 92 -336 120 -22 10 -89 39 -150 65 -199 85 -589 293
-707 376 -14 11 -28 19 -31 19 -3 0 -38 23 -79 50 -40 28 -81 56 -92 63 -36
23 -291 212 -302 222 -6 6 -31 27 -54 46 -234 189 -493 440 -695 675 -27 32
-59 68 -70 80 -11 12 -29 35 -40 50 -11 15 -25 32 -30 38 -27 27 -195 256
-195 265 0 5 -4 11 -8 13 -12 4 -138 194 -211 318 -34 58 -66 112 -71 120 -33
52 -168 316 -215 420 -26 58 -58 128 -70 155 -49 108 -193 509 -211 588 -1 4
-2 8 -4 10 -1 1 -3 9 -5 17 -2 8 -22 85 -44 170 -33 130 -75 325 -95 443 -3
15 -9 53 -15 85 -10 56 -15 99 -26 197 -3 28 -8 66 -10 85 -19 139 -28 350
-28 650 -1 277 4 380 28 580 14 114 17 137 20 160 6 42 17 114 21 135 6 30 12
66 19 105 8 52 45 223 52 240 4 8 5 18 5 23 -2 7 24 110 54 213 8 28 16 60 18
70 10 50 130 390 140 396 6 4 8 8 3 8 -4 0 0 17 9 38 9 20 17 43 17 50 0 6 4
12 9 12 4 0 8 6 8 13 0 6 11 39 25 72 14 33 33 78 42 100 31 74 181 370 232
460 28 48 51 91 51 96 0 4 7 14 15 22 8 8 26 37 41 63 15 27 43 73 63 103 20
29 47 70 60 90 13 20 28 38 33 39 4 2 8 8 8 12 0 5 14 29 30 52 17 24 38 54
48 68 9 14 19 27 22 30 3 3 17 21 30 40 29 41 23 33 140 179 51 62 111 134
134 159 142 158 284 302 406 414 47 43 94 86 105 96 18 17 135 115 182 153 11
9 69 53 129 98 60 45 115 86 122 92 7 5 56 39 110 75 53 35 102 68 107 72 30
23 320 193 380 223 39 19 72 37 75 40 7 9 277 138 378 180 12 5 32 13 45 19
290 125 876 299 1097 325 14 2 25 4 25 5 0 2 25 7 75 14 25 4 56 9 70 11 44 8
84 14 129 20 23 3 55 7 70 9 92 16 198 24 355 31 65 2 120 6 122 7 7 8 90 2
96 -7z"/>
<path d="M3927 8913 c-2 -1 -21 -5 -43 -8 -32 -5 -70 -12 -159 -31 -5 -1 -30
-8 -55 -15 -25 -7 -48 -13 -52 -15 -5 -1 -10 -3 -13 -4 -3 -1 -8 -3 -12 -5 -9
-2 -44 -16 -116 -47 -53 -23 -208 -107 -217 -117 -3 -4 -18 -15 -35 -25 -115
-74 -298 -259 -389 -394 -88 -132 -161 -280 -198 -402 -18 -59 -19 -65 -19
-67 0 -2 -5 -17 -10 -35 -5 -18 -12 -49 -15 -68 -3 -19 -7 -43 -10 -52 -18
-62 -21 -185 -4 -202 5 -5 10 -19 10 -29 0 -45 108 -155 195 -198 176 -87 327
-71 440 47 67 71 122 188 139 299 2 17 5 30 6 30 1 0 3 11 6 24 11 61 91 227
130 271 132 149 231 213 392 255 66 17 181 22 268 12 162 -19 386 -163 480
-307 16 -25 32 -47 35 -50 18 -15 72 -151 95 -236 14 -54 37 -121 52 -149 36
-66 145 -175 204 -203 55 -25 135 -45 155 -38 7 3 13 0 13 -7 0 -8 2 -9 8 -1
4 6 25 14 47 18 93 17 206 115 257 222 32 68 37 86 44 159 3 28 7 56 9 63 2 6
-1 12 -7 12 -6 0 -9 2 -6 5 5 5 -2 39 -37 189 -26 110 -175 430 -207 444 -5 2
-8 10 -8 18 0 8 -4 14 -8 14 -5 0 -13 9 -18 19 -12 26 -87 113 -155 182 -61
62 -220 191 -227 184 -2 -2 -13 5 -24 15 -12 11 -39 28 -62 40 -23 11 -48 24
-56 29 -90 55 -325 125 -490 147 -53 7 -328 13 -333 7z"/>
<path d="M7817 8914 c-1 -1 -25 -4 -54 -8 -28 -3 -80 -12 -115 -20 -35 -8 -74
-17 -88 -20 -14 -2 -45 -12 -70 -21 -25 -9 -49 -18 -55 -19 -20 -5 -112 -47
-180 -83 -138 -71 -240 -147 -370 -278 -85 -84 -205 -231 -205 -250 0 -5 -6
-16 -14 -24 -21 -23 -96 -168 -119 -226 -27 -71 -67 -196 -73 -225 -2 -14 -7
-36 -10 -50 -3 -13 -7 -38 -10 -55 -2 -16 -7 -43 -11 -60 -27 -100 20 -225
111 -300 111 -90 293 -143 381 -110 99 37 193 112 230 185 10 19 23 38 29 42
6 4 8 8 4 8 -4 0 -3 12 3 28 6 15 17 56 25 92 8 36 16 70 18 75 2 6 6 24 11
40 11 42 80 184 108 219 44 59 154 161 192 181 22 11 42 23 45 26 9 12 105 48
170 64 64 17 223 22 270 10 14 -3 35 -7 47 -9 43 -6 183 -66 183 -78 0 -5 9
-8 20 -8 11 0 20 -4 20 -8 0 -4 12 -15 28 -24 27 -17 124 -108 152 -144 77
-97 141 -234 156 -332 17 -107 77 -230 144 -292 49 -46 80 -71 80 -65 0 3 15
-2 33 -12 35 -18 192 -24 218 -7 8 5 19 9 24 10 20 3 109 46 139 68 62 43 133
132 141 178 2 11 6 27 9 36 10 31 8 87 -4 142 -6 30 -13 71 -16 90 -7 50 -41
173 -71 255 -33 89 -126 279 -144 295 -3 3 -24 32 -46 65 -66 98 -173 214
-268 290 -28 22 -52 42 -55 45 -3 3 -25 19 -50 35 -171 113 -405 206 -581 230
-24 3 -57 8 -74 12 -27 6 -302 12 -308 7z"/>
<path d="M3380 5012 c-169 -19 -327 -160 -365 -327 -32 -143 21 -264 182 -415
56 -53 170 -156 226 -205 152 -133 433 -333 647 -463 67 -40 436 -220 505
-247 39 -14 79 -30 90 -35 111 -51 464 -154 635 -185 14 -3 36 -7 50 -10 41
-8 82 -14 135 -20 28 -3 57 -8 65 -10 8 -2 46 -7 83 -10 38 -3 94 -8 125 -11
57 -6 417 -5 482 0 118 10 207 19 222 21 19 4 90 14 133 20 17 2 51 8 76 14
25 6 62 12 82 15 20 2 40 7 45 10 5 3 24 8 43 11 70 12 369 100 454 135 205
82 304 125 420 185 209 109 227 118 249 138 11 9 23 17 28 17 18 0 298 197
403 284 27 22 61 50 74 61 31 26 240 234 266 266 58 69 97 167 99 244 1 35 -2
58 -18 126 -13 51 -83 142 -162 208 -50 42 -149 74 -229 74 -82 0 -203 -56
-264 -122 -102 -112 -144 -154 -224 -223 -51 -43 -96 -82 -102 -86 -167 -124
-167 -124 -191 -139 -166 -105 -338 -197 -478 -257 -108 -47 -316 -121 -381
-137 -22 -5 -47 -11 -55 -13 -58 -15 -161 -38 -189 -42 -18 -3 -42 -7 -51 -9
-19 -4 -65 -10 -155 -21 -167 -20 -479 -20 -625 1 -19 3 -57 7 -85 10 -27 3
-61 8 -75 10 -14 3 -36 7 -50 10 -21 4 -38 8 -90 20 -3 1 -32 7 -65 14 -70 15
-78 17 -250 72 -199 64 -378 144 -610 274 -153 85 -506 342 -624 453 -10 10
-62 60 -116 112 -115 110 -152 137 -230 166 -29 10 -106 20 -135 16z"/>
</g>
</svg>
